G04 #@! TF.FileFunction,Copper,L1,Top,Signal*
%FSLAX46Y46*%
G04 Gerber Fmt 4.6, Leading zero omitted, Abs format (unit mm)*
G04 Created by KiCad (PCBNEW 4.0.7-e2-6376~58~ubuntu16.04.1) date Fri Dec  7 15:30:49 2018*
%MOMM*%
%LPD*%
G01*
G04 APERTURE LIST*
%ADD10C,0.100000*%
%ADD11R,1.800000X1.800000*%
%ADD12C,1.800000*%
%ADD13R,1.651000X1.651000*%
%ADD14C,1.651000*%
%ADD15R,1.778000X1.778000*%
%ADD16C,1.778000*%
%ADD17R,2.000000X2.000000*%
%ADD18C,2.000000*%
%ADD19C,1.524000*%
%ADD20C,3.302000*%
%ADD21C,2.032000*%
%ADD22C,3.810000*%
%ADD23C,0.600000*%
%ADD24C,0.762000*%
%ADD25C,0.381000*%
G04 APERTURE END LIST*
D10*
D11*
X54356000Y-102897940D03*
D12*
X54356000Y-106398060D03*
D13*
X75184000Y-102743000D03*
D14*
X77724000Y-102743000D03*
X80264000Y-102743000D03*
D15*
X194310000Y-64770000D03*
D16*
X196850000Y-64770000D03*
X194310000Y-67310000D03*
X196850000Y-67310000D03*
X194310000Y-69850000D03*
X196850000Y-69850000D03*
X194310000Y-72390000D03*
X196850000Y-72390000D03*
X194310000Y-74930000D03*
X196850000Y-74930000D03*
X194310000Y-77470000D03*
X196850000Y-77470000D03*
X194310000Y-80010000D03*
X196850000Y-80010000D03*
X194310000Y-82550000D03*
X196850000Y-82550000D03*
X194310000Y-85090000D03*
X196850000Y-85090000D03*
X194310000Y-87630000D03*
X196850000Y-87630000D03*
X194310000Y-90170000D03*
X196850000Y-90170000D03*
X194310000Y-92710000D03*
X196850000Y-92710000D03*
X194310000Y-95250000D03*
X196850000Y-95250000D03*
D15*
X194310000Y-107950000D03*
D16*
X196850000Y-107950000D03*
X194310000Y-110490000D03*
X196850000Y-110490000D03*
X194310000Y-113030000D03*
X196850000Y-113030000D03*
D15*
X76200000Y-118110000D03*
D16*
X76200000Y-120650000D03*
X73660000Y-118110000D03*
X73660000Y-120650000D03*
X71120000Y-118110000D03*
X71120000Y-120650000D03*
X68580000Y-118110000D03*
X68580000Y-120650000D03*
X66040000Y-118110000D03*
X66040000Y-120650000D03*
D15*
X66040000Y-59690000D03*
D16*
X66040000Y-57150000D03*
X68580000Y-59690000D03*
X68580000Y-57150000D03*
X71120000Y-59690000D03*
X71120000Y-57150000D03*
X73660000Y-59690000D03*
X73660000Y-57150000D03*
X76200000Y-59690000D03*
X76200000Y-57150000D03*
D17*
X94369940Y-123190000D03*
D18*
X97870060Y-123190000D03*
X101370000Y-123190000D03*
X104870000Y-123190000D03*
X108370000Y-123190000D03*
X111870000Y-123190000D03*
X115370000Y-123190000D03*
X118870000Y-123190000D03*
X122370000Y-123190000D03*
X125870000Y-123190000D03*
X129370000Y-123190000D03*
X132870000Y-123190000D03*
X136370000Y-123190000D03*
X139870000Y-123190000D03*
X143370000Y-123190000D03*
X146870000Y-123190000D03*
X150370000Y-123190000D03*
X153870000Y-123190000D03*
X157370000Y-123190000D03*
X160870000Y-123190000D03*
X164370000Y-123190000D03*
X167870000Y-123190000D03*
X171370000Y-123190000D03*
X174870000Y-123190000D03*
D17*
X174870060Y-54610000D03*
D18*
X171369940Y-54610000D03*
X167870000Y-54610000D03*
X164370000Y-54610000D03*
X160870000Y-54610000D03*
X157370000Y-54610000D03*
X153870000Y-54610000D03*
X150370000Y-54610000D03*
X146870000Y-54610000D03*
X143370000Y-54610000D03*
X139870000Y-54610000D03*
X136370000Y-54610000D03*
X132870000Y-54610000D03*
X129370000Y-54610000D03*
X125870000Y-54610000D03*
X122370000Y-54610000D03*
X118870000Y-54610000D03*
X115370000Y-54610000D03*
X111870000Y-54610000D03*
X108370000Y-54610000D03*
X104870000Y-54610000D03*
X101370000Y-54610000D03*
X97870000Y-54610000D03*
X94370000Y-54610000D03*
D19*
X52324000Y-88900000D03*
X54864000Y-88900000D03*
X57404000Y-88900000D03*
X59944000Y-88900000D03*
X62484000Y-88900000D03*
X65024000Y-88900000D03*
X67564000Y-88900000D03*
X70104000Y-88900000D03*
X72644000Y-88900000D03*
X75184000Y-88900000D03*
X77724000Y-88900000D03*
X80264000Y-88900000D03*
X82804000Y-88900000D03*
X85344000Y-88900000D03*
X85344000Y-86360000D03*
X85344000Y-83820000D03*
X85344000Y-81280000D03*
X85344000Y-78740000D03*
X85344000Y-76200000D03*
X85344000Y-73660000D03*
X82804000Y-73660000D03*
X80264000Y-73660000D03*
X77724000Y-73660000D03*
X75184000Y-73660000D03*
X72644000Y-73660000D03*
X70104000Y-73660000D03*
X67564000Y-73660000D03*
X65024000Y-73660000D03*
X62484000Y-73660000D03*
X59944000Y-73660000D03*
X57404000Y-73660000D03*
X54864000Y-73660000D03*
X52324000Y-73660000D03*
X67564000Y-81280000D03*
X70104000Y-81280000D03*
X72644000Y-81280000D03*
X75184000Y-81280000D03*
X77724000Y-81280000D03*
X80264000Y-81280000D03*
X82804000Y-81280000D03*
X82804000Y-78740000D03*
X80264000Y-78740000D03*
X77724000Y-78740000D03*
X75184000Y-78740000D03*
X72644000Y-78740000D03*
X70104000Y-78740000D03*
X67564000Y-78740000D03*
X65024000Y-76200000D03*
X62484000Y-76200000D03*
X59944000Y-76200000D03*
X54864000Y-76200000D03*
D20*
X54610000Y-54610000D03*
X199390000Y-54610000D03*
X199390000Y-123190000D03*
X54610000Y-123190000D03*
D21*
X111760000Y-95250000D03*
X111760000Y-92710000D03*
X111760000Y-90170000D03*
X111760000Y-87630000D03*
X111760000Y-85090000D03*
X111760000Y-82550000D03*
X157480000Y-95250000D03*
X157480000Y-92710000D03*
X157480000Y-90170000D03*
X157480000Y-87630000D03*
X157480000Y-85090000D03*
X157480000Y-82550000D03*
X116840000Y-97790000D03*
X116840000Y-100330000D03*
X119380000Y-97790000D03*
X119380000Y-100330000D03*
X121920000Y-97790000D03*
X121920000Y-100330000D03*
X127000000Y-97790000D03*
X127000000Y-100330000D03*
X129540000Y-97790000D03*
X129540000Y-100330000D03*
X132080000Y-97790000D03*
X132080000Y-100330000D03*
X137160000Y-97790000D03*
X137160000Y-100330000D03*
X139700000Y-97790000D03*
X139700000Y-100330000D03*
X142240000Y-97790000D03*
X142240000Y-100330000D03*
X147320000Y-97790000D03*
X147320000Y-100330000D03*
X149860000Y-97790000D03*
X149860000Y-100330000D03*
X152400000Y-97790000D03*
X152400000Y-100330000D03*
X152400000Y-80010000D03*
X152400000Y-77470000D03*
X149860000Y-80010000D03*
X149860000Y-77470000D03*
X147320000Y-80010000D03*
X147320000Y-77470000D03*
X142240000Y-80010000D03*
X142240000Y-77470000D03*
X139700000Y-80010000D03*
X139700000Y-77470000D03*
X137160000Y-80010000D03*
X137160000Y-77470000D03*
X132080000Y-80010000D03*
X132080000Y-77470000D03*
X129540000Y-80010000D03*
X129540000Y-77470000D03*
X127000000Y-80010000D03*
X127000000Y-77470000D03*
X121920000Y-80010000D03*
X121920000Y-77470000D03*
X119380000Y-80010000D03*
X119380000Y-77470000D03*
X116840000Y-80010000D03*
X116840000Y-77470000D03*
D22*
X111760000Y-99060000D03*
X111760000Y-78740000D03*
X157480000Y-78740000D03*
X157480000Y-99060000D03*
D23*
X124265700Y-77339400D03*
X138459500Y-72103400D03*
X153920400Y-63647700D03*
X152104500Y-69850000D03*
X153026800Y-72462600D03*
X186220700Y-76429400D03*
X171661000Y-96129300D03*
X187143500Y-78422600D03*
X171843100Y-62862800D03*
X153788900Y-61881200D03*
X143071700Y-73575700D03*
X141962100Y-61236900D03*
X184205900Y-80575900D03*
X176853600Y-87953600D03*
X97790000Y-73660000D03*
X184120900Y-93373300D03*
X61740900Y-108730900D03*
X84949800Y-91045800D03*
D24*
X157480000Y-92710000D02*
X111760000Y-92710000D01*
X54263300Y-104379200D02*
X54356000Y-104379200D01*
X52874700Y-105767800D02*
X54263300Y-104379200D01*
X52874700Y-109576000D02*
X52874700Y-105767800D01*
X65435300Y-122136600D02*
X52874700Y-109576000D01*
X74713400Y-122136600D02*
X65435300Y-122136600D01*
X76200000Y-120650000D02*
X74713400Y-122136600D01*
X54356000Y-102897900D02*
X54356000Y-104379200D01*
X58011100Y-102743000D02*
X54356000Y-106398100D01*
X73777200Y-102743000D02*
X58011100Y-102743000D01*
X75184000Y-102743000D02*
X73777200Y-102743000D01*
X127788600Y-124771400D02*
X129370000Y-123190000D01*
X123951400Y-124771400D02*
X127788600Y-124771400D01*
X122370000Y-123190000D02*
X123951400Y-124771400D01*
X173288800Y-55005400D02*
X173288800Y-54610000D01*
X172102900Y-56191300D02*
X173288800Y-55005400D01*
X169451300Y-56191300D02*
X172102900Y-56191300D01*
X167870000Y-54610000D02*
X169451300Y-56191300D01*
X174870100Y-54610000D02*
X173288800Y-54610000D01*
X117288600Y-53028600D02*
X118870000Y-54610000D01*
X113451400Y-53028600D02*
X117288600Y-53028600D01*
X111870000Y-54610000D02*
X113451400Y-53028600D01*
X159287100Y-53027100D02*
X160870000Y-54610000D01*
X155452900Y-53027100D02*
X159287100Y-53027100D01*
X153870000Y-54610000D02*
X155452900Y-53027100D01*
X124287100Y-53027100D02*
X125870000Y-54610000D01*
X120452900Y-53027100D02*
X124287100Y-53027100D01*
X118870000Y-54610000D02*
X120452900Y-53027100D01*
X131288600Y-53028600D02*
X132870000Y-54610000D01*
X127451400Y-53028600D02*
X131288600Y-53028600D01*
X125870000Y-54610000D02*
X127451400Y-53028600D01*
X196850000Y-95250000D02*
X194310000Y-95250000D01*
X198333000Y-111547000D02*
X196850000Y-113030000D01*
X198333000Y-96733000D02*
X198333000Y-111547000D01*
X196850000Y-95250000D02*
X198333000Y-96733000D01*
X109951400Y-124771400D02*
X108370000Y-123190000D01*
X113788600Y-124771400D02*
X109951400Y-124771400D01*
X115370000Y-123190000D02*
X113788600Y-124771400D01*
X120788600Y-124771400D02*
X122370000Y-123190000D01*
X116951400Y-124771400D02*
X120788600Y-124771400D01*
X115370000Y-123190000D02*
X116951400Y-124771400D01*
X130951400Y-124771400D02*
X129370000Y-123190000D01*
X134788600Y-124771400D02*
X130951400Y-124771400D01*
X136370000Y-123190000D02*
X134788600Y-124771400D01*
X106788600Y-124771400D02*
X108370000Y-123190000D01*
X102951400Y-124771400D02*
X106788600Y-124771400D01*
X101370000Y-123190000D02*
X102951400Y-124771400D01*
X80621000Y-105640000D02*
X77724000Y-102743000D01*
X101370000Y-105640000D02*
X80621000Y-105640000D01*
X111760000Y-95250000D02*
X101370000Y-105640000D01*
X141788600Y-124771400D02*
X143370000Y-123190000D01*
X137951400Y-124771400D02*
X141788600Y-124771400D01*
X136370000Y-123190000D02*
X137951400Y-124771400D01*
X144951400Y-124771400D02*
X143370000Y-123190000D01*
X148788600Y-124771400D02*
X144951400Y-124771400D01*
X150370000Y-123190000D02*
X148788600Y-124771400D01*
X95951200Y-122794700D02*
X95951200Y-123190000D01*
X97169500Y-121576400D02*
X95951200Y-122794700D01*
X101370000Y-121576400D02*
X97169500Y-121576400D01*
X101370000Y-105640000D02*
X101370000Y-121576400D01*
X101370000Y-121576400D02*
X101370000Y-123190000D01*
X94369900Y-123190000D02*
X95951200Y-123190000D01*
X172542300Y-122017700D02*
X171370000Y-123190000D01*
X172542300Y-95250000D02*
X172542300Y-122017700D01*
X194310000Y-95250000D02*
X172542300Y-95250000D01*
X157482000Y-95248000D02*
X157480000Y-95250000D01*
X172540300Y-95248000D02*
X157482000Y-95248000D01*
X172542300Y-95250000D02*
X172540300Y-95248000D01*
D25*
X194310000Y-64770000D02*
X193030200Y-64770000D01*
X136835100Y-64770000D02*
X193030200Y-64770000D01*
X124265700Y-77339400D02*
X136835100Y-64770000D01*
X114293700Y-113766300D02*
X104870000Y-123190000D01*
X114293700Y-98304100D02*
X114293700Y-113766300D01*
X116219800Y-96378000D02*
X114293700Y-98304100D01*
X117968000Y-96378000D02*
X116219800Y-96378000D01*
X119380000Y-97790000D02*
X117968000Y-96378000D01*
X143252900Y-67310000D02*
X194310000Y-67310000D01*
X138459500Y-72103400D02*
X143252900Y-67310000D01*
X198177300Y-65982700D02*
X196850000Y-67310000D01*
X198177300Y-64236600D02*
X198177300Y-65982700D01*
X197384900Y-63444200D02*
X198177300Y-64236600D01*
X182451800Y-63444200D02*
X197384900Y-63444200D01*
X182248300Y-63647700D02*
X182451800Y-63444200D01*
X153920400Y-63647700D02*
X182248300Y-63647700D01*
X125517500Y-122837500D02*
X125870000Y-123190000D01*
X125517500Y-97245800D02*
X125517500Y-122837500D01*
X126387300Y-96376000D02*
X125517500Y-97245800D01*
X128126000Y-96376000D02*
X126387300Y-96376000D01*
X129540000Y-97790000D02*
X128126000Y-96376000D01*
X194310000Y-69850000D02*
X152104500Y-69850000D01*
X194237400Y-72462600D02*
X194310000Y-72390000D01*
X153026800Y-72462600D02*
X194237400Y-72462600D01*
X144760900Y-121080900D02*
X146870000Y-123190000D01*
X144760900Y-98310700D02*
X144760900Y-121080900D01*
X142824200Y-96374000D02*
X144760900Y-98310700D01*
X141116000Y-96374000D02*
X142824200Y-96374000D01*
X139700000Y-97790000D02*
X141116000Y-96374000D01*
X187720100Y-74930000D02*
X194310000Y-74930000D01*
X186220700Y-76429400D02*
X187720100Y-74930000D01*
X193357400Y-78422600D02*
X194310000Y-77470000D01*
X187143500Y-78422600D02*
X193357400Y-78422600D01*
X167870000Y-96718600D02*
X167870000Y-123190000D01*
X153369100Y-96718600D02*
X167870000Y-96718600D01*
X153032800Y-96382300D02*
X153369100Y-96718600D01*
X151267700Y-96382300D02*
X153032800Y-96382300D01*
X149860000Y-97790000D02*
X151267700Y-96382300D01*
X171071700Y-96718600D02*
X171661000Y-96129300D01*
X167870000Y-96718600D02*
X171071700Y-96718600D01*
X197625800Y-62862800D02*
X171843100Y-62862800D01*
X198758700Y-63995700D02*
X197625800Y-62862800D01*
X198758700Y-78101300D02*
X198758700Y-63995700D01*
X196850000Y-80010000D02*
X198758700Y-78101300D01*
X197489300Y-61881200D02*
X153788900Y-61881200D01*
X199378900Y-63770800D02*
X197489300Y-61881200D01*
X199378900Y-80021100D02*
X199378900Y-63770800D01*
X196850000Y-82550000D02*
X199378900Y-80021100D01*
X143071700Y-73685300D02*
X143071700Y-73575700D01*
X180642700Y-73685300D02*
X143071700Y-73685300D01*
X192047400Y-85090000D02*
X180642700Y-73685300D01*
X194310000Y-85090000D02*
X192047400Y-85090000D01*
X137081700Y-82628300D02*
X139700000Y-80010000D01*
X127591200Y-82628300D02*
X137081700Y-82628300D01*
X125590200Y-80627300D02*
X127591200Y-82628300D01*
X125590200Y-76837000D02*
X125590200Y-80627300D01*
X128741900Y-73685300D02*
X125590200Y-76837000D01*
X143071700Y-73685300D02*
X128741900Y-73685300D01*
X142021000Y-61178000D02*
X141962100Y-61236900D01*
X197671900Y-61178000D02*
X142021000Y-61178000D01*
X199963500Y-63469600D02*
X197671900Y-61178000D01*
X199963500Y-81976500D02*
X199963500Y-63469600D01*
X196850000Y-85090000D02*
X199963500Y-81976500D01*
X133961300Y-78128700D02*
X132080000Y-80010000D01*
X133961300Y-76972500D02*
X133961300Y-78128700D01*
X136046900Y-74886900D02*
X133961300Y-76972500D01*
X180394500Y-74886900D02*
X136046900Y-74886900D01*
X193137600Y-87630000D02*
X180394500Y-74886900D01*
X194310000Y-87630000D02*
X193137600Y-87630000D01*
X130990000Y-81460000D02*
X129540000Y-80010000D01*
X132690000Y-81460000D02*
X130990000Y-81460000D01*
X135123900Y-79026100D02*
X132690000Y-81460000D01*
X135123900Y-76632000D02*
X135123900Y-79026100D01*
X136287700Y-75468200D02*
X135123900Y-76632000D01*
X179098200Y-75468200D02*
X136287700Y-75468200D01*
X184205900Y-80575900D02*
X179098200Y-75468200D01*
X192592400Y-90170000D02*
X194310000Y-90170000D01*
X178472000Y-76049600D02*
X192592400Y-90170000D01*
X136528600Y-76049600D02*
X178472000Y-76049600D01*
X135705300Y-76872900D02*
X136528600Y-76049600D01*
X135705300Y-79267000D02*
X135705300Y-76872900D01*
X132925400Y-82046900D02*
X135705300Y-79267000D01*
X129036900Y-82046900D02*
X132925400Y-82046900D01*
X127000000Y-80010000D02*
X129036900Y-82046900D01*
X123369700Y-78560300D02*
X121920000Y-80010000D01*
X123369700Y-77245900D02*
X123369700Y-78560300D01*
X140107800Y-60507800D02*
X123369700Y-77245900D01*
X197898000Y-60507800D02*
X140107800Y-60507800D01*
X200555000Y-63164800D02*
X197898000Y-60507800D01*
X200555000Y-86465000D02*
X200555000Y-63164800D01*
X196850000Y-90170000D02*
X200555000Y-86465000D01*
X101370000Y-71604000D02*
X101370000Y-54610000D01*
X110855600Y-81089600D02*
X101370000Y-71604000D01*
X113420800Y-81089600D02*
X110855600Y-81089600D01*
X113776300Y-81445100D02*
X113420800Y-81089600D01*
X117944900Y-81445100D02*
X113776300Y-81445100D01*
X119380000Y-80010000D02*
X117944900Y-81445100D01*
X182689600Y-81089600D02*
X194310000Y-92710000D01*
X156306300Y-81089600D02*
X182689600Y-81089600D01*
X154186300Y-83209600D02*
X156306300Y-81089600D01*
X122579600Y-83209600D02*
X154186300Y-83209600D01*
X119380000Y-80010000D02*
X122579600Y-83209600D01*
X115421900Y-78591900D02*
X116840000Y-80010000D01*
X115421900Y-72491800D02*
X115421900Y-78591900D01*
X118074900Y-69838800D02*
X115421900Y-72491800D01*
X95776300Y-53203700D02*
X94370000Y-54610000D01*
X102000800Y-53203700D02*
X95776300Y-53203700D01*
X103120000Y-54322900D02*
X102000800Y-53203700D01*
X103120000Y-54883900D02*
X103120000Y-54322900D01*
X118074900Y-69838800D02*
X103120000Y-54883900D01*
X127989700Y-59924000D02*
X118074900Y-69838800D01*
X198201800Y-59924000D02*
X127989700Y-59924000D01*
X201166300Y-62888500D02*
X198201800Y-59924000D01*
X201166300Y-88393700D02*
X201166300Y-62888500D01*
X196850000Y-92710000D02*
X201166300Y-88393700D01*
X81507100Y-87656900D02*
X80264000Y-88900000D01*
X106653100Y-87656900D02*
X81507100Y-87656900D01*
X111760000Y-82550000D02*
X106653100Y-87656900D01*
X156239100Y-83790900D02*
X157480000Y-82550000D01*
X113000900Y-83790900D02*
X156239100Y-83790900D01*
X111760000Y-82550000D02*
X113000900Y-83790900D01*
X78887100Y-90063100D02*
X77724000Y-88900000D01*
X106786900Y-90063100D02*
X78887100Y-90063100D01*
X111760000Y-85090000D02*
X106786900Y-90063100D01*
X111760000Y-85090000D02*
X157480000Y-85090000D01*
X173990000Y-85090000D02*
X176853600Y-87953600D01*
X157480000Y-85090000D02*
X173990000Y-85090000D01*
X85344000Y-73660000D02*
X97790000Y-73660000D01*
X157480000Y-87630000D02*
X111760000Y-87630000D01*
X160683300Y-93373300D02*
X184120900Y-93373300D01*
X157480000Y-90170000D02*
X160683300Y-93373300D01*
X76400400Y-116629800D02*
X76200000Y-116830200D01*
X76400400Y-101753400D02*
X76400400Y-116629800D01*
X71374000Y-96727000D02*
X76400400Y-101753400D01*
X71374000Y-88521900D02*
X71374000Y-96727000D01*
X69113200Y-86261100D02*
X71374000Y-88521900D01*
X68367800Y-86261100D02*
X69113200Y-86261100D01*
X57404000Y-75297300D02*
X68367800Y-86261100D01*
X57404000Y-73660000D02*
X57404000Y-75297300D01*
X76200000Y-118110000D02*
X76200000Y-116830200D01*
X61740900Y-108730900D02*
X71120000Y-118110000D01*
X77724000Y-68834000D02*
X77724000Y-73660000D01*
X68580000Y-59690000D02*
X77724000Y-68834000D01*
X67300100Y-55870100D02*
X68580000Y-57150000D01*
X65494300Y-55870100D02*
X67300100Y-55870100D01*
X64749700Y-56614700D02*
X65494300Y-55870100D01*
X64749700Y-63225700D02*
X64749700Y-56614700D01*
X75184000Y-73660000D02*
X64749700Y-63225700D01*
X78899900Y-67469900D02*
X71120000Y-59690000D01*
X78899900Y-74168600D02*
X78899900Y-67469900D01*
X78240900Y-74827600D02*
X78899900Y-74168600D01*
X73811600Y-74827600D02*
X78240900Y-74827600D01*
X72644000Y-73660000D02*
X73811600Y-74827600D01*
X64168300Y-72804300D02*
X65024000Y-73660000D01*
X64168300Y-56373800D02*
X64168300Y-72804300D01*
X65270100Y-55272000D02*
X64168300Y-56373800D01*
X71782000Y-55272000D02*
X65270100Y-55272000D01*
X73660000Y-57150000D02*
X71782000Y-55272000D01*
X84183300Y-65133300D02*
X76200000Y-57150000D01*
X84183300Y-75039300D02*
X84183300Y-65133300D01*
X85344000Y-76200000D02*
X84183300Y-75039300D01*
X110884200Y-91045800D02*
X84949800Y-91045800D01*
X111760000Y-90170000D02*
X110884200Y-91045800D01*
M02*
