G04 #@! TF.FileFunction,Soldermask,Bot*
%FSLAX46Y46*%
G04 Gerber Fmt 4.6, Leading zero omitted, Abs format (unit mm)*
G04 Created by KiCad (PCBNEW 4.0.7-e2-6376~58~ubuntu16.04.1) date Fri Dec  7 15:30:49 2018*
%MOMM*%
%LPD*%
G01*
G04 APERTURE LIST*
%ADD10C,0.100000*%
%ADD11R,2.200000X2.200000*%
%ADD12C,2.200000*%
%ADD13R,2.051000X2.051000*%
%ADD14C,2.051000*%
%ADD15R,2.178000X2.178000*%
%ADD16C,2.178000*%
%ADD17R,2.400000X2.400000*%
%ADD18C,2.400000*%
%ADD19C,1.924000*%
%ADD20C,3.702000*%
%ADD21C,2.432000*%
%ADD22C,4.210000*%
G04 APERTURE END LIST*
D10*
D11*
X54356000Y-102897940D03*
D12*
X54356000Y-106398060D03*
D13*
X75184000Y-102743000D03*
D14*
X77724000Y-102743000D03*
X80264000Y-102743000D03*
D15*
X194310000Y-64770000D03*
D16*
X196850000Y-64770000D03*
X194310000Y-67310000D03*
X196850000Y-67310000D03*
X194310000Y-69850000D03*
X196850000Y-69850000D03*
X194310000Y-72390000D03*
X196850000Y-72390000D03*
X194310000Y-74930000D03*
X196850000Y-74930000D03*
X194310000Y-77470000D03*
X196850000Y-77470000D03*
X194310000Y-80010000D03*
X196850000Y-80010000D03*
X194310000Y-82550000D03*
X196850000Y-82550000D03*
X194310000Y-85090000D03*
X196850000Y-85090000D03*
X194310000Y-87630000D03*
X196850000Y-87630000D03*
X194310000Y-90170000D03*
X196850000Y-90170000D03*
X194310000Y-92710000D03*
X196850000Y-92710000D03*
X194310000Y-95250000D03*
X196850000Y-95250000D03*
D15*
X194310000Y-107950000D03*
D16*
X196850000Y-107950000D03*
X194310000Y-110490000D03*
X196850000Y-110490000D03*
X194310000Y-113030000D03*
X196850000Y-113030000D03*
D15*
X76200000Y-118110000D03*
D16*
X76200000Y-120650000D03*
X73660000Y-118110000D03*
X73660000Y-120650000D03*
X71120000Y-118110000D03*
X71120000Y-120650000D03*
X68580000Y-118110000D03*
X68580000Y-120650000D03*
X66040000Y-118110000D03*
X66040000Y-120650000D03*
D15*
X66040000Y-59690000D03*
D16*
X66040000Y-57150000D03*
X68580000Y-59690000D03*
X68580000Y-57150000D03*
X71120000Y-59690000D03*
X71120000Y-57150000D03*
X73660000Y-59690000D03*
X73660000Y-57150000D03*
X76200000Y-59690000D03*
X76200000Y-57150000D03*
D17*
X94369940Y-123190000D03*
D18*
X97870060Y-123190000D03*
X101370000Y-123190000D03*
X104870000Y-123190000D03*
X108370000Y-123190000D03*
X111870000Y-123190000D03*
X115370000Y-123190000D03*
X118870000Y-123190000D03*
X122370000Y-123190000D03*
X125870000Y-123190000D03*
X129370000Y-123190000D03*
X132870000Y-123190000D03*
X136370000Y-123190000D03*
X139870000Y-123190000D03*
X143370000Y-123190000D03*
X146870000Y-123190000D03*
X150370000Y-123190000D03*
X153870000Y-123190000D03*
X157370000Y-123190000D03*
X160870000Y-123190000D03*
X164370000Y-123190000D03*
X167870000Y-123190000D03*
X171370000Y-123190000D03*
X174870000Y-123190000D03*
D17*
X174870060Y-54610000D03*
D18*
X171369940Y-54610000D03*
X167870000Y-54610000D03*
X164370000Y-54610000D03*
X160870000Y-54610000D03*
X157370000Y-54610000D03*
X153870000Y-54610000D03*
X150370000Y-54610000D03*
X146870000Y-54610000D03*
X143370000Y-54610000D03*
X139870000Y-54610000D03*
X136370000Y-54610000D03*
X132870000Y-54610000D03*
X129370000Y-54610000D03*
X125870000Y-54610000D03*
X122370000Y-54610000D03*
X118870000Y-54610000D03*
X115370000Y-54610000D03*
X111870000Y-54610000D03*
X108370000Y-54610000D03*
X104870000Y-54610000D03*
X101370000Y-54610000D03*
X97870000Y-54610000D03*
X94370000Y-54610000D03*
D19*
X52324000Y-88900000D03*
X54864000Y-88900000D03*
X57404000Y-88900000D03*
X59944000Y-88900000D03*
X62484000Y-88900000D03*
X65024000Y-88900000D03*
X67564000Y-88900000D03*
X70104000Y-88900000D03*
X72644000Y-88900000D03*
X75184000Y-88900000D03*
X77724000Y-88900000D03*
X80264000Y-88900000D03*
X82804000Y-88900000D03*
X85344000Y-88900000D03*
X85344000Y-86360000D03*
X85344000Y-83820000D03*
X85344000Y-81280000D03*
X85344000Y-78740000D03*
X85344000Y-76200000D03*
X85344000Y-73660000D03*
X82804000Y-73660000D03*
X80264000Y-73660000D03*
X77724000Y-73660000D03*
X75184000Y-73660000D03*
X72644000Y-73660000D03*
X70104000Y-73660000D03*
X67564000Y-73660000D03*
X65024000Y-73660000D03*
X62484000Y-73660000D03*
X59944000Y-73660000D03*
X57404000Y-73660000D03*
X54864000Y-73660000D03*
X52324000Y-73660000D03*
X67564000Y-81280000D03*
X70104000Y-81280000D03*
X72644000Y-81280000D03*
X75184000Y-81280000D03*
X77724000Y-81280000D03*
X80264000Y-81280000D03*
X82804000Y-81280000D03*
X82804000Y-78740000D03*
X80264000Y-78740000D03*
X77724000Y-78740000D03*
X75184000Y-78740000D03*
X72644000Y-78740000D03*
X70104000Y-78740000D03*
X67564000Y-78740000D03*
X65024000Y-76200000D03*
X62484000Y-76200000D03*
X59944000Y-76200000D03*
X54864000Y-76200000D03*
D20*
X54610000Y-54610000D03*
X199390000Y-54610000D03*
X199390000Y-123190000D03*
X54610000Y-123190000D03*
D21*
X111760000Y-95250000D03*
X111760000Y-92710000D03*
X111760000Y-90170000D03*
X111760000Y-87630000D03*
X111760000Y-85090000D03*
X111760000Y-82550000D03*
X157480000Y-95250000D03*
X157480000Y-92710000D03*
X157480000Y-90170000D03*
X157480000Y-87630000D03*
X157480000Y-85090000D03*
X157480000Y-82550000D03*
X116840000Y-97790000D03*
X116840000Y-100330000D03*
X119380000Y-97790000D03*
X119380000Y-100330000D03*
X121920000Y-97790000D03*
X121920000Y-100330000D03*
X127000000Y-97790000D03*
X127000000Y-100330000D03*
X129540000Y-97790000D03*
X129540000Y-100330000D03*
X132080000Y-97790000D03*
X132080000Y-100330000D03*
X137160000Y-97790000D03*
X137160000Y-100330000D03*
X139700000Y-97790000D03*
X139700000Y-100330000D03*
X142240000Y-97790000D03*
X142240000Y-100330000D03*
X147320000Y-97790000D03*
X147320000Y-100330000D03*
X149860000Y-97790000D03*
X149860000Y-100330000D03*
X152400000Y-97790000D03*
X152400000Y-100330000D03*
X152400000Y-80010000D03*
X152400000Y-77470000D03*
X149860000Y-80010000D03*
X149860000Y-77470000D03*
X147320000Y-80010000D03*
X147320000Y-77470000D03*
X142240000Y-80010000D03*
X142240000Y-77470000D03*
X139700000Y-80010000D03*
X139700000Y-77470000D03*
X137160000Y-80010000D03*
X137160000Y-77470000D03*
X132080000Y-80010000D03*
X132080000Y-77470000D03*
X129540000Y-80010000D03*
X129540000Y-77470000D03*
X127000000Y-80010000D03*
X127000000Y-77470000D03*
X121920000Y-80010000D03*
X121920000Y-77470000D03*
X119380000Y-80010000D03*
X119380000Y-77470000D03*
X116840000Y-80010000D03*
X116840000Y-77470000D03*
D22*
X111760000Y-99060000D03*
X111760000Y-78740000D03*
X157480000Y-78740000D03*
X157480000Y-99060000D03*
M02*
