G04 #@! TF.FileFunction,Copper,L2,Bot,Signal*
%FSLAX46Y46*%
G04 Gerber Fmt 4.6, Leading zero omitted, Abs format (unit mm)*
G04 Created by KiCad (PCBNEW 4.0.7-e2-6376~58~ubuntu16.04.1) date Mon Nov 19 16:49:33 2018*
%MOMM*%
%LPD*%
G01*
G04 APERTURE LIST*
%ADD10C,0.100000*%
%ADD11R,1.800000X1.800000*%
%ADD12C,1.800000*%
%ADD13R,1.651000X1.651000*%
%ADD14C,1.651000*%
%ADD15R,1.778000X1.778000*%
%ADD16C,1.778000*%
%ADD17R,2.000000X2.000000*%
%ADD18C,2.000000*%
%ADD19C,1.524000*%
%ADD20C,2.032000*%
%ADD21C,3.810000*%
%ADD22C,3.302000*%
%ADD23C,0.600000*%
%ADD24C,0.762000*%
%ADD25C,0.381000*%
G04 APERTURE END LIST*
D10*
D11*
X54356000Y-102897940D03*
D12*
X54356000Y-106398060D03*
D13*
X75184000Y-102743000D03*
D14*
X77724000Y-102743000D03*
X80264000Y-102743000D03*
D15*
X194310000Y-64770000D03*
D16*
X196850000Y-64770000D03*
X194310000Y-67310000D03*
X196850000Y-67310000D03*
X194310000Y-69850000D03*
X196850000Y-69850000D03*
X194310000Y-72390000D03*
X196850000Y-72390000D03*
X194310000Y-74930000D03*
X196850000Y-74930000D03*
X194310000Y-77470000D03*
X196850000Y-77470000D03*
X194310000Y-80010000D03*
X196850000Y-80010000D03*
X194310000Y-82550000D03*
X196850000Y-82550000D03*
X194310000Y-85090000D03*
X196850000Y-85090000D03*
X194310000Y-87630000D03*
X196850000Y-87630000D03*
X194310000Y-90170000D03*
X196850000Y-90170000D03*
X194310000Y-92710000D03*
X196850000Y-92710000D03*
X194310000Y-95250000D03*
X196850000Y-95250000D03*
D15*
X194310000Y-107950000D03*
D16*
X196850000Y-107950000D03*
X194310000Y-110490000D03*
X196850000Y-110490000D03*
X194310000Y-113030000D03*
X196850000Y-113030000D03*
D15*
X76200000Y-118110000D03*
D16*
X76200000Y-120650000D03*
X73660000Y-118110000D03*
X73660000Y-120650000D03*
X71120000Y-118110000D03*
X71120000Y-120650000D03*
X68580000Y-118110000D03*
X68580000Y-120650000D03*
X66040000Y-118110000D03*
X66040000Y-120650000D03*
D15*
X66040000Y-59690000D03*
D16*
X66040000Y-57150000D03*
X68580000Y-59690000D03*
X68580000Y-57150000D03*
X71120000Y-59690000D03*
X71120000Y-57150000D03*
X73660000Y-59690000D03*
X73660000Y-57150000D03*
X76200000Y-59690000D03*
X76200000Y-57150000D03*
D17*
X94369940Y-123190000D03*
D18*
X97870060Y-123190000D03*
X101370000Y-123190000D03*
X104870000Y-123190000D03*
X108370000Y-123190000D03*
X111870000Y-123190000D03*
X115370000Y-123190000D03*
X118870000Y-123190000D03*
X122370000Y-123190000D03*
X125870000Y-123190000D03*
X129370000Y-123190000D03*
X132870000Y-123190000D03*
X136370000Y-123190000D03*
X139870000Y-123190000D03*
X143370000Y-123190000D03*
X146870000Y-123190000D03*
X150370000Y-123190000D03*
X153870000Y-123190000D03*
X157370000Y-123190000D03*
X160870000Y-123190000D03*
X164370000Y-123190000D03*
X167870000Y-123190000D03*
X171370000Y-123190000D03*
X174870000Y-123190000D03*
D17*
X174870060Y-54610000D03*
D18*
X171369940Y-54610000D03*
X167870000Y-54610000D03*
X164370000Y-54610000D03*
X160870000Y-54610000D03*
X157370000Y-54610000D03*
X153870000Y-54610000D03*
X150370000Y-54610000D03*
X146870000Y-54610000D03*
X143370000Y-54610000D03*
X139870000Y-54610000D03*
X136370000Y-54610000D03*
X132870000Y-54610000D03*
X129370000Y-54610000D03*
X125870000Y-54610000D03*
X122370000Y-54610000D03*
X118870000Y-54610000D03*
X115370000Y-54610000D03*
X111870000Y-54610000D03*
X108370000Y-54610000D03*
X104870000Y-54610000D03*
X101370000Y-54610000D03*
X97870000Y-54610000D03*
X94370000Y-54610000D03*
D19*
X52324000Y-88900000D03*
X54864000Y-88900000D03*
X57404000Y-88900000D03*
X59944000Y-88900000D03*
X62484000Y-88900000D03*
X65024000Y-88900000D03*
X67564000Y-88900000D03*
X70104000Y-88900000D03*
X72644000Y-88900000D03*
X75184000Y-88900000D03*
X77724000Y-88900000D03*
X80264000Y-88900000D03*
X82804000Y-88900000D03*
X85344000Y-88900000D03*
X85344000Y-86360000D03*
X85344000Y-83820000D03*
X85344000Y-81280000D03*
X85344000Y-78740000D03*
X85344000Y-76200000D03*
X85344000Y-73660000D03*
X82804000Y-73660000D03*
X80264000Y-73660000D03*
X77724000Y-73660000D03*
X75184000Y-73660000D03*
X72644000Y-73660000D03*
X70104000Y-73660000D03*
X67564000Y-73660000D03*
X65024000Y-73660000D03*
X62484000Y-73660000D03*
X59944000Y-73660000D03*
X57404000Y-73660000D03*
X54864000Y-73660000D03*
X52324000Y-73660000D03*
X67564000Y-81280000D03*
X70104000Y-81280000D03*
X72644000Y-81280000D03*
X75184000Y-81280000D03*
X77724000Y-81280000D03*
X80264000Y-81280000D03*
X82804000Y-81280000D03*
X82804000Y-78740000D03*
X80264000Y-78740000D03*
X77724000Y-78740000D03*
X75184000Y-78740000D03*
X72644000Y-78740000D03*
X70104000Y-78740000D03*
X67564000Y-78740000D03*
X65024000Y-76200000D03*
X62484000Y-76200000D03*
X59944000Y-76200000D03*
X54864000Y-76200000D03*
D20*
X111760000Y-95250000D03*
X111760000Y-92710000D03*
X111760000Y-90170000D03*
X111760000Y-87630000D03*
X111760000Y-85090000D03*
X111760000Y-82550000D03*
X157480000Y-95250000D03*
X157480000Y-92710000D03*
X157480000Y-90170000D03*
X157480000Y-87630000D03*
X157480000Y-85090000D03*
X157480000Y-82550000D03*
X116840000Y-97790000D03*
X116840000Y-100330000D03*
X119380000Y-97790000D03*
X119380000Y-100330000D03*
X121920000Y-97790000D03*
X121920000Y-100330000D03*
X127000000Y-97790000D03*
X127000000Y-100330000D03*
X129540000Y-97790000D03*
X129540000Y-100330000D03*
X132080000Y-97790000D03*
X132080000Y-100330000D03*
X137160000Y-97790000D03*
X137160000Y-100330000D03*
X139700000Y-97790000D03*
X139700000Y-100330000D03*
X142240000Y-97790000D03*
X142240000Y-100330000D03*
X147320000Y-97790000D03*
X147320000Y-100330000D03*
X149860000Y-97790000D03*
X149860000Y-100330000D03*
X152400000Y-97790000D03*
X152400000Y-100330000D03*
X152400000Y-80010000D03*
X152400000Y-77470000D03*
X149860000Y-80010000D03*
X149860000Y-77470000D03*
X147320000Y-80010000D03*
X147320000Y-77470000D03*
X142240000Y-80010000D03*
X142240000Y-77470000D03*
X139700000Y-80010000D03*
X139700000Y-77470000D03*
X137160000Y-80010000D03*
X137160000Y-77470000D03*
X132080000Y-80010000D03*
X132080000Y-77470000D03*
X129540000Y-80010000D03*
X129540000Y-77470000D03*
X127000000Y-80010000D03*
X127000000Y-77470000D03*
X121920000Y-80010000D03*
X121920000Y-77470000D03*
X119380000Y-80010000D03*
X119380000Y-77470000D03*
X116840000Y-80010000D03*
X116840000Y-77470000D03*
D21*
X111760000Y-99060000D03*
X111760000Y-78740000D03*
X157480000Y-78740000D03*
X157480000Y-99060000D03*
D22*
X54610000Y-54610000D03*
X199390000Y-54610000D03*
X199390000Y-123190000D03*
X54610000Y-123190000D03*
D23*
X124897700Y-75070400D03*
X124900000Y-78086800D03*
X135489600Y-63516200D03*
X135997300Y-74608000D03*
X201680400Y-110019500D03*
X150149400Y-71807200D03*
X165599900Y-72832500D03*
X167231800Y-73229700D03*
X156814700Y-72681100D03*
X145143900Y-74608000D03*
X133390700Y-74671500D03*
X170252000Y-99182300D03*
X163779700Y-92710000D03*
X95250000Y-73660000D03*
X61740900Y-108730900D03*
D24*
X68120600Y-55069400D02*
X66040000Y-57150000D01*
X77094500Y-55069400D02*
X68120600Y-55069400D01*
X86698200Y-64673100D02*
X77094500Y-55069400D01*
X86698200Y-79925800D02*
X86698200Y-64673100D01*
X85344000Y-81280000D02*
X86698200Y-79925800D01*
X54356000Y-102897900D02*
X54356000Y-101416600D01*
X52644100Y-88900000D02*
X52324000Y-88900000D01*
X55960300Y-85583800D02*
X52644100Y-88900000D01*
X65800200Y-85583800D02*
X55960300Y-85583800D01*
X70104000Y-81280000D02*
X65800200Y-85583800D01*
X52644100Y-99704700D02*
X54356000Y-101416600D01*
X52644100Y-88900000D02*
X52644100Y-99704700D01*
X103268800Y-53008800D02*
X104870000Y-54610000D01*
X99471200Y-53008800D02*
X103268800Y-53008800D01*
X97870000Y-54610000D02*
X99471200Y-53008800D01*
X106451400Y-53028600D02*
X104870000Y-54610000D01*
X110288600Y-53028600D02*
X106451400Y-53028600D01*
X111870000Y-54610000D02*
X110288600Y-53028600D01*
X134451400Y-53028600D02*
X132870000Y-54610000D01*
X138288600Y-53028600D02*
X134451400Y-53028600D01*
X139870000Y-54610000D02*
X138288600Y-53028600D01*
X113453500Y-53026500D02*
X111870000Y-54610000D01*
X117286500Y-53026500D02*
X113453500Y-53026500D01*
X118870000Y-54610000D02*
X117286500Y-53026500D01*
X196850000Y-95250000D02*
X194310000Y-95250000D01*
X198925600Y-110954400D02*
X196850000Y-113030000D01*
X198925600Y-97325600D02*
X198925600Y-110954400D01*
X196850000Y-95250000D02*
X198925600Y-97325600D01*
X162454800Y-53025200D02*
X160870000Y-54610000D01*
X166285200Y-53025200D02*
X162454800Y-53025200D01*
X167870000Y-54610000D02*
X166285200Y-53025200D01*
X120453000Y-53027000D02*
X118870000Y-54610000D01*
X124287000Y-53027000D02*
X120453000Y-53027000D01*
X125870000Y-54610000D02*
X124287000Y-53027000D01*
X144969800Y-124789800D02*
X143370000Y-123190000D01*
X148770200Y-124789800D02*
X144969800Y-124789800D01*
X150370000Y-123190000D02*
X148770200Y-124789800D01*
X137968300Y-124788300D02*
X136370000Y-123190000D01*
X141771700Y-124788300D02*
X137968300Y-124788300D01*
X143370000Y-123190000D02*
X141771700Y-124788300D01*
X173288800Y-55005300D02*
X173288800Y-54610000D01*
X172070600Y-56223500D02*
X173288800Y-55005300D01*
X169483500Y-56223500D02*
X172070600Y-56223500D01*
X169483500Y-56223500D02*
X167870000Y-54610000D01*
X174870100Y-54610000D02*
X173288800Y-54610000D01*
X130967700Y-124787700D02*
X129370000Y-123190000D01*
X134772300Y-124787700D02*
X130967700Y-124787700D01*
X136370000Y-123190000D02*
X134772300Y-124787700D01*
X123967400Y-124787400D02*
X122370000Y-123190000D01*
X127772600Y-124787400D02*
X123967400Y-124787400D01*
X129370000Y-123190000D02*
X127772600Y-124787400D01*
X171376000Y-72316000D02*
X194310000Y-95250000D01*
X169483500Y-72316000D02*
X171376000Y-72316000D01*
X159249500Y-82550000D02*
X169483500Y-72316000D01*
X157480000Y-82550000D02*
X159249500Y-82550000D01*
X169483500Y-72316000D02*
X169483500Y-56223500D01*
X109967400Y-124787400D02*
X108370000Y-123190000D01*
X113772600Y-124787400D02*
X109967400Y-124787400D01*
X115370000Y-123190000D02*
X113772600Y-124787400D01*
X116967400Y-124787400D02*
X115370000Y-123190000D01*
X120772600Y-124787400D02*
X116967400Y-124787400D01*
X122370000Y-123190000D02*
X120772600Y-124787400D01*
X77724000Y-104962800D02*
X77724000Y-102743000D01*
X94369900Y-121608700D02*
X77724000Y-104962800D01*
X94369900Y-123190000D02*
X94369900Y-121608700D01*
X87671300Y-95335700D02*
X80264000Y-102743000D01*
X87671300Y-64285100D02*
X87671300Y-95335700D01*
X77454500Y-54068300D02*
X87671300Y-64285100D01*
X67034300Y-54068300D02*
X77454500Y-54068300D01*
X52324000Y-68778600D02*
X67034300Y-54068300D01*
X52324000Y-73660000D02*
X52324000Y-68778600D01*
D25*
X97870100Y-116759900D02*
X116840000Y-97790000D01*
X97870100Y-123190000D02*
X97870100Y-116759900D01*
X124141200Y-90488800D02*
X116840000Y-97790000D01*
X124141200Y-75826900D02*
X124141200Y-90488800D01*
X124897700Y-75070400D02*
X124141200Y-75826900D01*
X202398400Y-70318400D02*
X196850000Y-64770000D01*
X202398400Y-111775900D02*
X202398400Y-70318400D01*
X187788300Y-126386000D02*
X202398400Y-111775900D01*
X108066000Y-126386000D02*
X187788300Y-126386000D01*
X104870000Y-123190000D02*
X108066000Y-126386000D01*
X123326900Y-99196900D02*
X121920000Y-97790000D01*
X123326900Y-111733100D02*
X123326900Y-99196900D01*
X111870000Y-123190000D02*
X123326900Y-111733100D01*
X124900000Y-94810000D02*
X124900000Y-78086800D01*
X121920000Y-97790000D02*
X124900000Y-94810000D01*
X125593200Y-99196800D02*
X127000000Y-97790000D01*
X125593200Y-116466800D02*
X125593200Y-99196800D01*
X118870000Y-123190000D02*
X125593200Y-116466800D01*
X134084800Y-64921000D02*
X135489600Y-63516200D01*
X134084800Y-90705200D02*
X134084800Y-64921000D01*
X127000000Y-97790000D02*
X134084800Y-90705200D01*
X134704900Y-75900400D02*
X135997300Y-74608000D01*
X134704900Y-92625100D02*
X134704900Y-75900400D01*
X129540000Y-97790000D02*
X134704900Y-92625100D01*
X133494000Y-122566000D02*
X132870000Y-123190000D01*
X133494000Y-99204000D02*
X133494000Y-122566000D01*
X132080000Y-97790000D02*
X133494000Y-99204000D01*
X201680400Y-74680400D02*
X201680400Y-110019500D01*
X196850000Y-69850000D02*
X201680400Y-74680400D01*
X135751100Y-99198900D02*
X137160000Y-97790000D01*
X135751100Y-119071100D02*
X135751100Y-99198900D01*
X139870000Y-123190000D02*
X135751100Y-119071100D01*
X145112600Y-76844000D02*
X150149400Y-71807200D01*
X145112600Y-89837400D02*
X145112600Y-76844000D01*
X137160000Y-97790000D02*
X145112600Y-89837400D01*
X200895300Y-76435300D02*
X196850000Y-72390000D01*
X200895300Y-112456700D02*
X200895300Y-76435300D01*
X187547400Y-125804600D02*
X200895300Y-112456700D01*
X154495800Y-125804600D02*
X187547400Y-125804600D01*
X152120000Y-123428800D02*
X154495800Y-125804600D01*
X152120000Y-122905000D02*
X152120000Y-123428800D01*
X150967300Y-121752300D02*
X152120000Y-122905000D01*
X148307700Y-121752300D02*
X150967300Y-121752300D01*
X146870000Y-123190000D02*
X148307700Y-121752300D01*
X142240000Y-97790000D02*
X142946000Y-97790000D01*
X143652000Y-98496000D02*
X142946000Y-97790000D01*
X143652000Y-112972000D02*
X143652000Y-98496000D01*
X153870000Y-123190000D02*
X143652000Y-112972000D01*
X160128000Y-72832500D02*
X165599900Y-72832500D01*
X155172500Y-77788000D02*
X160128000Y-72832500D01*
X155172500Y-80756700D02*
X155172500Y-77788000D01*
X142946000Y-92983200D02*
X155172500Y-80756700D01*
X142946000Y-97790000D02*
X142946000Y-92983200D01*
X145907600Y-108227600D02*
X160870000Y-123190000D01*
X145907600Y-99202400D02*
X145907600Y-108227600D01*
X147320000Y-97790000D02*
X145907600Y-99202400D01*
X200313900Y-78393900D02*
X196850000Y-74930000D01*
X200313900Y-112210800D02*
X200313900Y-78393900D01*
X187308000Y-125216700D02*
X200313900Y-112210800D01*
X162896700Y-125216700D02*
X187308000Y-125216700D01*
X160870000Y-123190000D02*
X162896700Y-125216700D01*
X151318400Y-96331600D02*
X152967900Y-96331600D01*
X149860000Y-97790000D02*
X151318400Y-96331600D01*
X154552400Y-109872400D02*
X167870000Y-123190000D01*
X154552400Y-97916100D02*
X154552400Y-109872400D01*
X152967900Y-96331600D02*
X154552400Y-97916100D01*
X159371900Y-81089600D02*
X167231800Y-73229700D01*
X156936000Y-81089600D02*
X159371900Y-81089600D01*
X152967900Y-85057700D02*
X156936000Y-81089600D01*
X152967900Y-96331600D02*
X152967900Y-85057700D01*
X173424700Y-124635300D02*
X174870000Y-123190000D01*
X167297100Y-124635300D02*
X173424700Y-124635300D01*
X166120000Y-123458200D02*
X167297100Y-124635300D01*
X166120000Y-122947700D02*
X166120000Y-123458200D01*
X153806900Y-110634600D02*
X166120000Y-122947700D01*
X153806900Y-99196900D02*
X153806900Y-110634600D01*
X152400000Y-97790000D02*
X153806900Y-99196900D01*
X199732500Y-80352500D02*
X196850000Y-77470000D01*
X199732500Y-111969900D02*
X199732500Y-80352500D01*
X188512400Y-123190000D02*
X199732500Y-111969900D01*
X174870000Y-123190000D02*
X188512400Y-123190000D01*
X191069100Y-76769100D02*
X194310000Y-80010000D01*
X191069100Y-68255900D02*
X191069100Y-76769100D01*
X176032300Y-53219100D02*
X191069100Y-68255900D01*
X172760800Y-53219100D02*
X176032300Y-53219100D01*
X171369900Y-54610000D02*
X172760800Y-53219100D01*
X153828100Y-78581900D02*
X152400000Y-80010000D01*
X153828100Y-76698100D02*
X153828100Y-78581900D01*
X159239500Y-71286700D02*
X153828100Y-76698100D01*
X159239500Y-54226100D02*
X159239500Y-71286700D01*
X161227200Y-52238400D02*
X159239500Y-54226100D01*
X168998300Y-52238400D02*
X161227200Y-52238400D01*
X171369900Y-54610000D02*
X168998300Y-52238400D01*
X164370000Y-67500000D02*
X164370000Y-54610000D01*
X154591100Y-77278900D02*
X164370000Y-67500000D01*
X154591100Y-79817000D02*
X154591100Y-77278900D01*
X152989500Y-81418600D02*
X154591100Y-79817000D01*
X151268600Y-81418600D02*
X152989500Y-81418600D01*
X149860000Y-80010000D02*
X151268600Y-81418600D01*
X155963600Y-53203600D02*
X157370000Y-54610000D01*
X153239200Y-53203600D02*
X155963600Y-53203600D01*
X152469700Y-53973100D02*
X153239200Y-53203600D01*
X152469700Y-72398500D02*
X152469700Y-53973100D01*
X156532100Y-72398500D02*
X156814700Y-72681100D01*
X152469700Y-72398500D02*
X156532100Y-72398500D01*
X151647300Y-73220900D02*
X152469700Y-72398500D01*
X149558000Y-73220900D02*
X151647300Y-73220900D01*
X145902400Y-76876500D02*
X149558000Y-73220900D01*
X145902400Y-78592400D02*
X145902400Y-76876500D01*
X147320000Y-80010000D02*
X145902400Y-78592400D01*
X148975700Y-53215700D02*
X150370000Y-54610000D01*
X142796200Y-53215700D02*
X148975700Y-53215700D01*
X141972900Y-54039000D02*
X142796200Y-53215700D01*
X141972900Y-55413100D02*
X141972900Y-54039000D01*
X143646900Y-57087100D02*
X141972900Y-55413100D01*
X143646900Y-78603100D02*
X143646900Y-57087100D01*
X142240000Y-80010000D02*
X143646900Y-78603100D01*
X144228300Y-74608000D02*
X145143900Y-74608000D01*
X144228300Y-55468300D02*
X144228300Y-74608000D01*
X143370000Y-54610000D02*
X144228300Y-55468300D01*
X141142500Y-81452500D02*
X139700000Y-80010000D01*
X142852600Y-81452500D02*
X141142500Y-81452500D01*
X144228300Y-80076800D02*
X142852600Y-81452500D01*
X144228300Y-74608000D02*
X144228300Y-80076800D01*
X136688100Y-54928100D02*
X136370000Y-54610000D01*
X136688100Y-74894200D02*
X136688100Y-54928100D01*
X135736200Y-75846100D02*
X136688100Y-74894200D01*
X135736200Y-78586200D02*
X135736200Y-75846100D01*
X137160000Y-80010000D02*
X135736200Y-78586200D01*
X133503400Y-74784200D02*
X133390700Y-74671500D01*
X133503400Y-78586600D02*
X133503400Y-74784200D01*
X132080000Y-80010000D02*
X133503400Y-78586600D01*
X133390700Y-58630700D02*
X133390700Y-74671500D01*
X129370000Y-54610000D02*
X133390700Y-58630700D01*
X125590800Y-64830800D02*
X115370000Y-54610000D01*
X125590800Y-78600800D02*
X125590800Y-64830800D01*
X127000000Y-80010000D02*
X125590800Y-78600800D01*
X123328900Y-69568900D02*
X108370000Y-54610000D01*
X123328900Y-78601100D02*
X123328900Y-69568900D01*
X121920000Y-80010000D02*
X123328900Y-78601100D01*
X94370000Y-57540000D02*
X116840000Y-80010000D01*
X94370000Y-54610000D02*
X94370000Y-57540000D01*
X194310000Y-107950000D02*
X193030200Y-107950000D01*
X184262500Y-99182300D02*
X193030200Y-107950000D01*
X170252000Y-99182300D02*
X184262500Y-99182300D01*
X181610000Y-92710000D02*
X196850000Y-107950000D01*
X163779700Y-92710000D02*
X181610000Y-92710000D01*
X111760000Y-90170000D02*
X95250000Y-73660000D01*
X177800000Y-110490000D02*
X194310000Y-110490000D01*
X157480000Y-90170000D02*
X177800000Y-110490000D01*
X198153700Y-109186300D02*
X196850000Y-110490000D01*
X198153700Y-107436300D02*
X198153700Y-109186300D01*
X178347400Y-87630000D02*
X198153700Y-107436300D01*
X157480000Y-87630000D02*
X178347400Y-87630000D01*
X57404000Y-69605800D02*
X66040000Y-60969800D01*
X57404000Y-73660000D02*
X57404000Y-69605800D01*
X66040000Y-59690000D02*
X66040000Y-60969800D01*
X57404000Y-115568400D02*
X57404000Y-88900000D01*
X64995500Y-123159900D02*
X57404000Y-115568400D01*
X71150100Y-123159900D02*
X64995500Y-123159900D01*
X73660000Y-120650000D02*
X71150100Y-123159900D01*
X59944000Y-106934000D02*
X61740900Y-108730900D01*
X59944000Y-88900000D02*
X59944000Y-106934000D01*
X69191500Y-122578500D02*
X71120000Y-120650000D01*
X65236400Y-122578500D02*
X69191500Y-122578500D01*
X62484000Y-119826100D02*
X65236400Y-122578500D01*
X62484000Y-88900000D02*
X62484000Y-119826100D01*
X76400400Y-110289600D02*
X68580000Y-118110000D01*
X76400400Y-88415400D02*
X76400400Y-110289600D01*
X75085600Y-87100600D02*
X76400400Y-88415400D01*
X66823400Y-87100600D02*
X75085600Y-87100600D01*
X65024000Y-88900000D02*
X66823400Y-87100600D01*
X67262600Y-121967400D02*
X68580000Y-120650000D01*
X65526600Y-121967400D02*
X67262600Y-121967400D01*
X64133500Y-120574300D02*
X65526600Y-121967400D01*
X64133500Y-92330500D02*
X64133500Y-120574300D01*
X67564000Y-88900000D02*
X64133500Y-92330500D01*
X73821900Y-110328100D02*
X66040000Y-118110000D01*
X73821900Y-88385000D02*
X73821900Y-110328100D01*
X73177400Y-87740500D02*
X73821900Y-88385000D01*
X71263500Y-87740500D02*
X73177400Y-87740500D01*
X70104000Y-88900000D02*
X71263500Y-87740500D01*
X64714900Y-119324900D02*
X66040000Y-120650000D01*
X64714900Y-96829100D02*
X64714900Y-119324900D01*
X72644000Y-88900000D02*
X64714900Y-96829100D01*
X77511900Y-66252100D02*
X70104000Y-73660000D01*
X77511900Y-56615400D02*
X77511900Y-66252100D01*
X76756500Y-55860000D02*
X77511900Y-56615400D01*
X72410000Y-55860000D02*
X76756500Y-55860000D01*
X71120000Y-57150000D02*
X72410000Y-55860000D01*
X67564000Y-65786000D02*
X73660000Y-59690000D01*
X67564000Y-73660000D02*
X67564000Y-65786000D01*
X68834000Y-67056000D02*
X76200000Y-59690000D01*
X68834000Y-74038600D02*
X68834000Y-67056000D01*
X68045000Y-74827600D02*
X68834000Y-74038600D01*
X63651600Y-74827600D02*
X68045000Y-74827600D01*
X62484000Y-73660000D02*
X63651600Y-74827600D01*
M02*
