M48
;DRILL file {KiCad 4.0.7-e2-6376~58~ubuntu16.04.1} date Mon Nov 19 16:49:38 2018
;FORMAT={-:-/ absolute / inch / decimal}
FMAT,2
INCH,TZ
T1C0.016
T2C0.039
T3C0.040
T4C0.047
T5C0.100
T6C0.120
%
G90
G05
M72
T1
X2.4307Y-4.2807
X3.75Y-2.9
X4.9172Y-2.9555
X4.9173Y-3.0743
X5.2516Y-2.9398
X5.3342Y-2.5006
X5.3542Y-2.9373
X5.7143Y-2.9373
X5.9114Y-2.8271
X6.1738Y-2.8615
X6.448Y-3.65
X6.5197Y-2.8674
X6.5839Y-2.8831
X6.7028Y-3.9048
X7.9402Y-4.3315
T2
X2.96Y-4.045
X3.06Y-4.045
X3.16Y-4.045
X4.4Y-3.25
X4.4Y-3.35
X4.4Y-3.45
X4.4Y-3.55
X4.4Y-3.65
X4.4Y-3.75
X4.6Y-3.05
X4.6Y-3.15
X4.6Y-3.85
X4.6Y-3.95
X4.7Y-3.05
X4.7Y-3.15
X4.7Y-3.85
X4.7Y-3.95
X4.8Y-3.05
X4.8Y-3.15
X4.8Y-3.85
X4.8Y-3.95
X5.Y-3.05
X5.Y-3.15
X5.Y-3.85
X5.Y-3.95
X5.1Y-3.05
X5.1Y-3.15
X5.1Y-3.85
X5.1Y-3.95
X5.2Y-3.05
X5.2Y-3.15
X5.2Y-3.85
X5.2Y-3.95
X5.4Y-3.05
X5.4Y-3.15
X5.4Y-3.85
X5.4Y-3.95
X5.5Y-3.05
X5.5Y-3.15
X5.5Y-3.85
X5.5Y-3.95
X5.6Y-3.05
X5.6Y-3.15
X5.6Y-3.85
X5.6Y-3.95
X5.8Y-3.05
X5.8Y-3.15
X5.8Y-3.85
X5.8Y-3.95
X5.9Y-3.05
X5.9Y-3.15
X5.9Y-3.85
X5.9Y-3.95
X6.Y-3.05
X6.Y-3.15
X6.Y-3.85
X6.Y-3.95
X6.2Y-3.25
X6.2Y-3.35
X6.2Y-3.45
X6.2Y-3.55
X6.2Y-3.65
X6.2Y-3.75
T3
X2.06Y-2.9
X2.06Y-3.5
X2.16Y-2.9
X2.16Y-3.
X2.16Y-3.5
X2.26Y-2.9
X2.26Y-3.5
X2.36Y-2.9
X2.36Y-3.
X2.36Y-3.5
X2.46Y-2.9
X2.46Y-3.
X2.46Y-3.5
X2.56Y-2.9
X2.56Y-3.
X2.56Y-3.5
X2.6Y-2.25
X2.6Y-2.35
X2.6Y-4.65
X2.6Y-4.75
X2.66Y-2.9
X2.66Y-3.1
X2.66Y-3.2
X2.66Y-3.5
X2.7Y-2.25
X2.7Y-2.35
X2.7Y-4.65
X2.7Y-4.75
X2.76Y-2.9
X2.76Y-3.1
X2.76Y-3.2
X2.76Y-3.5
X2.8Y-2.25
X2.8Y-2.35
X2.8Y-4.65
X2.8Y-4.75
X2.86Y-2.9
X2.86Y-3.1
X2.86Y-3.2
X2.86Y-3.5
X2.9Y-2.25
X2.9Y-2.35
X2.9Y-4.65
X2.9Y-4.75
X2.96Y-2.9
X2.96Y-3.1
X2.96Y-3.2
X2.96Y-3.5
X3.Y-2.25
X3.Y-2.35
X3.Y-4.65
X3.Y-4.75
X3.06Y-2.9
X3.06Y-3.1
X3.06Y-3.2
X3.06Y-3.5
X3.16Y-2.9
X3.16Y-3.1
X3.16Y-3.2
X3.16Y-3.5
X3.26Y-2.9
X3.26Y-3.1
X3.26Y-3.2
X3.26Y-3.5
X3.36Y-2.9
X3.36Y-3.
X3.36Y-3.1
X3.36Y-3.2
X3.36Y-3.3
X3.36Y-3.4
X3.36Y-3.5
X7.65Y-2.55
X7.65Y-2.65
X7.65Y-2.75
X7.65Y-2.85
X7.65Y-2.95
X7.65Y-3.05
X7.65Y-3.15
X7.65Y-3.25
X7.65Y-3.35
X7.65Y-3.45
X7.65Y-3.55
X7.65Y-3.65
X7.65Y-3.75
X7.65Y-4.25
X7.65Y-4.35
X7.65Y-4.45
X7.75Y-2.55
X7.75Y-2.65
X7.75Y-2.75
X7.75Y-2.85
X7.75Y-2.95
X7.75Y-3.05
X7.75Y-3.15
X7.75Y-3.25
X7.75Y-3.35
X7.75Y-3.45
X7.75Y-3.55
X7.75Y-3.65
X7.75Y-3.75
X7.75Y-4.25
X7.75Y-4.35
X7.75Y-4.45
T4
X2.14Y-4.0511
X2.14Y-4.1889
X3.7154Y-4.85
X3.7154Y-2.15
X3.8531Y-2.15
X3.8532Y-4.85
X3.9909Y-2.15
X3.9909Y-4.85
X4.1287Y-2.15
X4.1287Y-4.85
X4.2665Y-2.15
X4.2665Y-4.85
X4.4043Y-2.15
X4.4043Y-4.85
X4.5421Y-2.15
X4.5421Y-4.85
X4.6799Y-2.15
X4.6799Y-4.85
X4.8177Y-2.15
X4.8177Y-4.85
X4.9555Y-2.15
X4.9555Y-4.85
X5.0933Y-2.15
X5.0933Y-4.85
X5.2311Y-2.15
X5.2311Y-4.85
X5.3689Y-2.15
X5.3689Y-4.85
X5.5067Y-2.15
X5.5067Y-4.85
X5.6445Y-2.15
X5.6445Y-4.85
X5.7823Y-2.15
X5.7823Y-4.85
X5.9201Y-2.15
X5.9201Y-4.85
X6.0579Y-2.15
X6.0579Y-4.85
X6.1957Y-2.15
X6.1957Y-4.85
X6.3335Y-2.15
X6.3335Y-4.85
X6.4713Y-2.15
X6.4713Y-4.85
X6.6091Y-2.15
X6.6091Y-4.85
X6.7468Y-2.15
X6.7469Y-4.85
X6.8846Y-4.85
X6.8846Y-2.15
T5
X4.4Y-3.1
X4.4Y-3.9
X6.2Y-3.1
X6.2Y-3.9
T6
X2.15Y-2.15
X2.15Y-4.85
X7.85Y-2.15
X7.85Y-4.85
T0
M30
